<?xml version="1.0" encoding="iso-8859-1"?>
<!-- Generator: Adobe Illustrator 19.0.0, SVG Export Plug-In . SVG Version: 6.00 Build 0)  -->
<svg version="1.1" id="Layer_1" xmlns="http://www.w3.org/2000/svg"  x="0px" y="0px"
	 viewBox="0 0 511.999 511.999" style="enable-background:new 0 0 511.999 511.999;" xml:space="preserve">
<g>
	<path style="fill:#3E3B43;" d="M238.718,412.421c-4.34-0.232-7.992,3.13-8.198,7.453c-0.005,0.122-3.032,13.746-33.489,33.035
		c-3.656,2.315-4.742,7.155-2.428,10.81c1.492,2.355,4.03,3.643,6.627,3.643c1.433,0,2.884-0.393,4.183-1.217
		c37.871-23.984,40.595-42.131,40.757-45.526C246.376,416.296,243.04,412.626,238.718,412.421z"/>
	<path style="fill:#3E3B43;" d="M310.956,452.157c-30.457-19.288-33.483-32.912-33.489-33.035c-0.206-4.322-3.857-7.684-8.198-7.453
		c-4.322,0.205-7.659,3.875-7.453,8.198c0.162,3.395,2.886,21.543,40.757,45.526c1.3,0.824,2.751,1.217,4.183,1.217
		c2.596,0,5.135-1.288,6.627-3.643C315.698,459.312,314.612,454.472,310.956,452.157z"/>
</g>
<path style="fill:#C6C3CB;" d="M269.647,417.483c40.239,22.09,73.46,20.891,73.46,20.891v-38.332l-20.388-16.092
	c23.389,5.198,43.53-11.695,43.53-11.695v-43.53c-14.943,9.096-43.53,0-43.53,0c32.485-8.446,43.53-38.332,43.53-38.332v-55.875
	c-29.886,28.587-54.576,29.886-54.576,29.886c28.388-20.842,42.665-56.788,49.757-84.757c6.475-25.536,4.504-52.495-5.594-76.828
	C329.671,39.763,255.304,0,255.304,0h1.391c0,0-74.366,39.763-100.533,102.817c-10.098,24.333-12.069,51.291-5.593,76.828
	c7.091,27.967,21.368,63.914,49.757,84.757c0,0-24.689-1.299-54.576-29.886v55.875c0,0,11.045,29.886,43.53,38.332
	c0,0-28.587,9.096-43.53,0v43.53c0,0,20.141,16.892,43.53,11.695l-24.194,18.692v34.434c0,0,32.3,3.148,74.949-17.642
	L269.647,417.483z"/>
<g style="opacity:0.36;">
	<path style="fill:#77757E;" d="M255.058,0c0,0,0.248,0.133,0.696,0.381C256.202,0.133,256.45,0,256.45,0H255.058z"/>
	<path style="fill:#77757E;" d="M243.853,188.882h23.76c72.663-40.285,67.401-118.146,67.401-118.146v-2.914
		c-30.152-39.424-73.331-64.154-79.26-67.441c-6.074,3.366-51.238,29.239-81.442,70.355
		C174.311,70.738,168.884,148.597,243.853,188.882z"/>
</g>
<g>
	<path style="fill:#3E3B43;" d="M246.829,234.373c-34.721-15.707-43.1-37.628-43.475-38.655c-1.433-4.057-5.873-6.202-9.944-4.795
		c-4.09,1.412-6.261,5.871-4.849,9.962c0.406,1.177,10.431,29.046,51.808,47.764c1.048,0.474,2.144,0.699,3.224,0.699
		c2.982,0,5.833-1.713,7.143-4.607C252.521,240.798,250.772,236.156,246.829,234.373z"/>
	<path style="fill:#3E3B43;" d="M269.941,249.347c1.109,0,2.236-0.237,3.308-0.737c40.172-18.748,49.888-46.619,50.283-47.796
		c1.373-4.103-0.84-8.542-4.943-9.915c-4.104-1.374-8.542,0.84-9.916,4.943c-0.075,0.225-7.908,22.635-42.051,38.571
		c-3.92,1.83-5.615,6.492-3.786,10.412C264.167,247.673,266.991,249.347,269.941,249.347z"/>
	<path style="fill:#3E3B43;" d="M242.57,302.647c-28.925,0-48.258-15.146-48.561-15.387c-3.356-2.708-8.277-2.196-11.001,1.155
		c-2.728,3.358-2.219,8.292,1.14,11.021c0.846,0.686,18.983,15.147,47.559,18.276c-7.295,12.107-21.53,25.696-49.309,31.841
		c-2.2,0.487-3.937,0.871-5.635,2.567c-3.06,3.059-3.063,8.019-0.004,11.079c1.53,1.531,3.536,2.296,5.541,2.296
		c0.899,0,1.8-0.154,2.655-0.462c0.218-0.05,0.496-0.11,0.826-0.183c38.746-8.571,55.814-30.059,63.307-46.577
		c0.669-1.473,0.843-3.044,0.593-4.526c0.458-0.995,0.721-2.1,0.721-3.266C250.404,306.154,246.896,302.647,242.57,302.647z"/>
	<path style="fill:#3E3B43;" d="M324.302,348.392c-29.755,0-43.42-23.748-47.368-32.292c10.806-0.936,29.466-4.337,47.985-16.137
		c3.649-2.325,4.722-7.168,2.397-10.816c-2.325-3.648-7.167-4.722-10.816-2.397c-23.506,14.98-47.849,14.011-48.07,14.001
		c-2.164-0.109-4.279,0.673-5.842,2.172c-1.563,1.502-2.435,3.583-2.408,5.749l0.024,1.908c0.01,0.793,0.139,1.556,0.368,2.276
		c-0.21,0.724-0.321,1.491-0.31,2.283c0.049,3.804,5.818,16.109,14.402,25.991c13.034,15.001,30.198,22.931,49.637,22.931
		c4.326,0,7.834-3.507,7.834-7.834C332.136,351.899,328.629,348.392,324.302,348.392z"/>
</g>
<polygon style="fill:#77757E;" points="270.573,511.96 240.036,511.96 245.258,96.625 265.35,96.625 "/>
<g style="opacity:0.15;">
	<path style="fill:#3E3B43;" d="M250.65,0.595L250.65,0.595h-0.247c0,0,0.248,0.133,0.696,0.381l0,0V0.595H250.65z"/>
	<path style="fill:#3E3B43;" d="M252.042,0.595h-0.38c0.061,0.033,0.123,0.068,0.189,0.104
		C251.975,0.632,252.042,0.595,252.042,0.595z"/>
	<path style="fill:#3E3B43;" d="M251.346,0.422c-0.043,0.023-0.077,0.043-0.124,0.069c-0.037-0.021-0.089-0.05-0.122-0.069v0.174
		h0.562C251.549,0.534,251.439,0.473,251.346,0.422z"/>
	<path style="fill:#3E3B43;" d="M346.824,220.045c-29.015,25.827-62.938,46.322-95.657,62.253l0.055,229.7h19.252l-0.941-74.862
		c5.745,7.661,15.688,17.37,32.942,28.297c1.3,0.824,2.751,1.217,4.183,1.217c2.596,0,5.135-1.288,6.627-3.643
		c2.315-3.655,1.228-8.495-2.428-10.81c-22.129-14.015-29.772-25.032-32.302-30.06c36.069,17.285,64.453,16.276,64.453,16.276
		v-38.332l-20.388-16.092c23.389,5.198,43.53-11.695,43.53-11.695v-43.531c-14.943,9.096-43.53,0-43.53,0
		c32.485-8.446,43.53-38.332,43.53-38.332v-55.875c-29.886,28.587-54.576,29.886-54.576,29.886
		C327.233,252.947,338.591,236.856,346.824,220.045z"/>
	<path style="fill:#3E3B43;" d="M251.346,0.977c0.218-0.12,0.386-0.213,0.503-0.277c-0.066-0.037-0.128-0.071-0.189-0.104h-0.562
		v0.381c0.046-0.026,0.081-0.045,0.123-0.068C251.261,0.93,251.304,0.954,251.346,0.977z"/>
</g>
<g>
</g>
<g>
</g>
<g>
</g>
<g>
</g>
<g>
</g>
<g>
</g>
<g>
</g>
<g>
</g>
<g>
</g>
<g>
</g>
<g>
</g>
<g>
</g>
<g>
</g>
<g>
</g>
<g>
</g>
</svg>
